<svg xmlns="http://www.w3.org/2000/svg" viewBox="0 0 2001 2001"><defs><style>.cls-1{fill:#20c997;stroke:#919191;}.cls-1,.cls-2{stroke-miterlimit:10;}.cls-2{stroke:#fff;}</style></defs><g id="Capa_2" data-name="Capa 2"><rect class="cls-1" x="0.5" y="0.5" width="2000" height="2000" rx="201.9"/></g><g id="Capa_1" data-name="Capa 1"><path class="cls-2" d="M527.72,1524.88c.93,40.8,30.56,70,70.55,70q154.37.21,308.73,0,306.11,0,612.22,0c27,0,45.47,11.3,54.45,33.08,13.65,33.1-10.27,70.22-46,71.41-3.85.13-7.7.08-11.55.08-304.54,0-609.07-.69-913.6.45-84.33.32-162.8-57.41-177.74-148a200.72,200.72,0,0,1-2.21-32.43q-.17-519.81-.07-1039.61c0-87.55,53.81-155.86,138.89-175.84,12.1-2.85,24.94-3.55,37.43-3.56,267.08-.2,534.17.46,801.24-.51,84.52-.31,164,60.63,176.29,153.33,1,7.25.84,14.67.84,22q.06,496.19.39,992.36c.06,35.19-26.34,57.52-57.69,57.48q-489.36-.72-978.71-.3ZM1180.46,986c79.35-123.83,44-269.89-53-348.23-99.13-80.08-244.36-77-337.13,7.33-97.77,88.83-116.74,229.23-44.87,339,34.33,52.41,82.08,88.44,142.32,106.14,78.11,23,151.84,11.18,222.11-33.3,2.53,3.28,4.57,6.63,7.26,9.33q81.57,81.74,163.3,163.31c28.37,28.24,74.7,16.6,85.33-21.6,5.64-20.28-.63-37.54-15.58-52.4C1293.63,1099.32,1237.31,1042.81,1180.46,986Z" transform="translate(0.5 0.5)"/><path class="cls-2" d="M804.24,840c0-87.25,71.88-159.05,158.87-158.78,87.86.28,160.11,72.5,159.59,159.52-.52,88.09-72,159.25-159.79,159.11C874.94,999.65,804.2,928.38,804.24,840Z" transform="translate(0.5 0.5)"/></g></svg>