<svg xmlns="http://www.w3.org/2000/svg" viewBox="0 0 1156.12 1401"><defs><style>.cls-1{stroke:#fff;stroke-miterlimit:10;}</style></defs><g id="Capa_2" data-name="Capa 2"><g id="Capa_1-2" data-name="Capa 1"><path class="cls-1" d="M105.78,1225.38c.93,40.8,30.56,70,70.55,70q154.37.21,308.73,0,306.1,0,612.22,0c27,0,45.47,11.3,54.45,33.08,13.65,33.1-10.27,70.22-46,71.41-3.85.13-7.7.08-11.55.08-304.54,0-609.07-.69-913.6.45-84.33.32-162.8-57.41-177.74-148A200.72,200.72,0,0,1,.6,1220Q.44,700.21.53,180.41C.55,92.86,54.34,24.55,139.42,4.57,151.52,1.72,164.36,1,176.86,1,443.94.81,711,1.47,978.09.5,1062.61.19,1142,61.13,1154.38,153.83c1,7.25.84,14.67.84,22q.06,496.18.39,992.36c.06,35.19-26.34,57.52-57.69,57.48q-489.34-.72-978.71-.3Zm652.74-538.9c79.35-123.83,44-269.89-53-348.23-99.13-80.08-244.36-76.95-337.13,7.33-97.77,88.83-116.74,229.23-44.86,339C357.86,737,405.61,773,465.85,790.7,544,813.65,617.69,801.88,688,757.4c2.53,3.28,4.57,6.63,7.26,9.33Q776.79,848.47,858.53,930c28.36,28.24,74.69,16.6,85.32-21.6,5.64-20.28-.63-37.54-15.58-52.4C871.69,799.82,815.37,743.31,758.52,686.48Z"/><path class="cls-1" d="M382.3,540.45c0-87.25,71.88-159.05,158.87-158.78,87.86.28,160.11,72.5,159.59,159.52-.52,88.09-72,159.25-159.79,159.11C453,700.15,382.26,628.88,382.3,540.45Z"/></g></g></svg>